<?xml version="1.0" encoding="UTF-8" standalone="no"?>
<svg
   viewBox="0 0 159 48"
   fill="#ffd736"
   version="1.1"
   id="svg5"
   sodipodi:docname="divd-family-logo.svg"
   inkscape:version="1.4.1-rc (d9e8dc1fe0, 2025-03-10)"
   width="159"
   height="48"
   xmlns:inkscape="http://www.inkscape.org/namespaces/inkscape"
   xmlns:sodipodi="http://sodipodi.sourceforge.net/DTD/sodipodi-0.dtd"
   xmlns="http://www.w3.org/2000/svg"
   xmlns:svg="http://www.w3.org/2000/svg">
  <defs
     id="defs5" />
  <sodipodi:namedview
     id="namedview5"
     pagecolor="#ffffff"
     bordercolor="#000000"
     borderopacity="0.25"
     inkscape:showpageshadow="2"
     inkscape:pageopacity="0.0"
     inkscape:pagecheckerboard="0"
     inkscape:deskcolor="#d1d1d1"
     inkscape:zoom="7.5625"
     inkscape:cx="113.91736"
     inkscape:cy="32.066116"
     inkscape:window-width="3774"
     inkscape:window-height="1531"
     inkscape:window-x="66"
     inkscape:window-y="32"
     inkscape:window-maximized="1"
     inkscape:current-layer="text5"
     showgrid="false" />
  <g
     id="g5">
    <path
       d="M 71.356,0.125244 H 23.8718 C 10.7088,0.125244 0,10.834 0,23.997 0,37.16 10.7088,47.8746 23.8718,47.8746 H 71.356 c 13.1689,0 23.8833,-10.709 23.8833,-23.8776 0,-13.1686 -10.7144,-23.871756 -23.8833,-23.871756 z m 0,44.776856 H 23.8718 C 12.3447,44.9021 2.9723,35.5239 2.9723,23.997 2.9723,12.4701 12.3447,3.09764 23.8718,3.09764 H 71.356 c 11.533,0 20.9111,9.37246 20.9111,20.89936 0,11.5269 -9.3781,20.9051 -20.9111,20.9051 z"
       id="path1" />
    <path
       d="m 28.0654,15.27 c -0.8582,-0.7489 -1.8202,-1.2674 -2.8744,-1.5382 -1.0542,-0.2765 -2.3217,-0.409 -3.7961,-0.409 h -5.6742 c -0.9392,0 -1.6131,0.2074 -2.0336,0.628 -0.4205,0.4206 -0.6337,1.1002 -0.6337,2.0393 v 15.7551 c 0,0.697 0.0636,1.2615 0.1845,1.6936 0.1209,0.4378 0.3859,0.772 0.7834,1.0139 0.4034,0.2419 0.9966,0.3572 1.7915,0.3572 h 5.6686 c 0.9907,0 1.8778,-0.0634 2.6612,-0.1901 0.7893,-0.1267 1.5268,-0.3457 2.2063,-0.6566 0.6855,-0.3169 1.3136,-0.7316 1.8953,-1.2501 0.7316,-0.6739 1.3307,-1.4344 1.803,-2.2927 0.4666,-0.8526 0.8123,-1.8145 1.0371,-2.8803 0.2247,-1.0656 0.3398,-2.2408 0.3398,-3.5312 0,-3.9115 -1.1177,-6.8208 -3.3587,-8.7389 z m -3.2372,15.0696 c -0.3226,0.2823 -0.7088,0.5069 -1.1465,0.6624 -0.4377,0.1555 -0.8641,0.2536 -1.2731,0.2938 -0.409,0.0346 -0.9794,0.0577 -1.6995,0.0577 H 17.4083 V 16.7677 h 2.8747 c 1.3248,0 2.4598,0.144 3.3987,0.432 0.9389,0.288 1.7282,0.9562 2.3675,2.0162 0.6393,1.0542 0.9623,2.6442 0.9623,4.764 0,3.007 -0.7319,5.1269 -2.1833,6.3597 z"
       id="path2" />
    <path
       d="m 39.1719,13.605 c -0.409,-0.432 -0.9392,-0.6509 -1.5901,-0.6509 -0.6393,0 -1.1577,0.2188 -1.5552,0.6624 -0.4034,0.4378 -0.5991,1.0945 -0.5991,1.9758 v 16.9304 c 0,0.8814 0.2017,1.5438 0.6047,1.9874 0.409,0.4436 0.9217,0.6682 1.5496,0.6682 0.6509,0 1.1811,-0.2188 1.5901,-0.6624 0.4031,-0.4378 0.6047,-1.1002 0.6047,-1.9931 V 15.5924 c 0,-0.8872 -0.2017,-1.5496 -0.6047,-1.9874 z"
       id="path3" />
    <path
       d="m 61.7591,13.9737 c -0.1786,-0.3111 -0.4264,-0.5531 -0.749,-0.7431 -0.3167,-0.1844 -0.6624,-0.2765 -1.0312,-0.2765 -0.5069,0 -0.9099,0.1209 -1.2039,0.3571 -0.2937,0.2419 -0.5012,0.5126 -0.6278,0.8066 -0.1269,0.2994 -0.3167,0.8295 -0.5704,1.5898 l -4.885,14.5168 -4.8675,-14.413 C 47.5017,14.8148 47.1906,14.089 46.8795,13.6339 46.5743,13.1788 46.05,12.9542 45.3069,12.9542 c -0.6047,0 -1.1119,0.2073 -1.5093,0.6163 -0.4034,0.409 -0.6047,0.8641 -0.6047,1.3653 0,0.1958 0.0346,0.432 0.0979,0.7143 0.0633,0.288 0.1384,0.5472 0.2363,0.7949 0.092,0.242 0.1783,0.4897 0.2706,0.7431 l 5.1153,13.929 c 0.1845,0.5358 0.3688,1.0485 0.553,1.5266 0.1901,0.478 0.4034,0.9044 0.6568,1.2788 0.2478,0.3801 0.5761,0.6797 0.9794,0.9102 0.409,0.2304 0.9043,0.3456 1.4863,0.3456 0.5876,0 1.0829,-0.1152 1.4919,-0.3513 0.4031,-0.2363 0.7316,-0.5358 0.9735,-0.9044 0.2419,-0.3628 0.4607,-0.7893 0.6453,-1.2731 0.1842,-0.4839 0.3685,-0.9966 0.5586,-1.5324 l 5.202,-14.0442 c 0.0864,-0.2534 0.1786,-0.5012 0.265,-0.7374 0.0864,-0.2419 0.1612,-0.4839 0.2188,-0.7374 0.0577,-0.2477 0.0864,-0.4782 0.0864,-0.697 0,-0.3111 -0.0867,-0.6222 -0.2709,-0.9274 z"
       id="path4" />
    <path
       d="m 80.3426,15.27 c -0.8641,-0.7489 -1.8202,-1.2674 -2.8744,-1.5382 -1.0542,-0.2765 -2.3217,-0.409 -3.7961,-0.409 h -5.6742 c -0.9392,0 -1.6188,0.2074 -2.0393,0.628 -0.4205,0.4206 -0.6281,1.1002 -0.6281,2.0393 v 15.7551 c 0,0.697 0.0577,1.2615 0.1845,1.6936 0.1209,0.4378 0.3803,0.772 0.7834,1.0139 0.3974,0.2419 0.9966,0.3572 1.7858,0.3572 h 5.6742 c 0.985,0 1.8722,-0.0634 2.6612,-0.1901 0.7893,-0.1267 1.5209,-0.3457 2.2063,-0.6566 0.6855,-0.3169 1.3136,-0.7316 1.8896,-1.2501 0.7316,-0.6739 1.3364,-1.4344 1.803,-2.2927 0.4723,-0.8526 0.818,-1.8145 1.0427,-2.8803 0.2247,-1.0656 0.3342,-2.2408 0.3342,-3.5312 0,-3.9115 -1.1175,-6.8208 -3.3528,-8.7389 z m -3.2431,15.0696 c -0.3226,0.2823 -0.7029,0.5069 -1.1406,0.6624 -0.4436,0.1555 -0.8641,0.2536 -1.2787,0.2938 -0.4093,0.0346 -0.9738,0.0577 -1.6995,0.0577 H 69.6855 V 16.7677 h 2.8688 c 1.3307,0 2.4657,0.144 3.4046,0.432 0.9389,0.288 1.7282,0.9562 2.3675,2.0162 0.6393,1.0542 0.9563,2.6442 0.9563,4.764 0,3.007 -0.7259,5.1269 -2.1832,6.3597 z"
       id="path5" />
  </g>
  <g
     id="text5"
     style="font-size:37.3333px;font-family:Arial"
     aria-label=".works">
    <path
       d="m 102.29745,31.153482 q -0.5651,0 -0.97526,-0.364584 -0.41016,-0.364584 -0.41016,-1.020835 0,-0.555991 0.39193,-0.957033 0.39193,-0.401042 0.96615,-0.401042 0.57422,0 0.97526,0.401042 0.41016,0.391928 0.41016,0.957033 0,0.647137 -0.41016,1.020835 -0.40104,0.364584 -0.94792,0.364584 z m 3.9922,-9.898455 h 0.59245 V 20.50763 q 0,-1.166669 0.29166,-1.850264 0.30078,-0.69271 1.00261,-1.002606 0.71094,-0.319011 1.94141,-0.319011 2.17839,0 2.17839,1.066408 0,0.346355 -0.22787,0.592449 -0.22786,0.246094 -0.53776,0.246094 -0.14583,0 -0.5013,-0.05469 -0.35547,-0.05469 -0.60157,-0.05469 -0.67448,0 -0.86588,0.401042 -0.19141,0.391928 -0.19141,1.130211 v 0.592449 h 0.61068 q 1.42188,0 1.42188,0.856772 0,0.610678 -0.38282,0.774741 -0.37369,0.164063 -1.03906,0.164063 h -0.61068 v 6.589856 q 0,0.738282 -0.35547,1.13021 -0.34635,0.382813 -0.90234,0.382813 -0.52865,0 -0.88412,-0.382813 -0.34635,-0.391928 -0.34635,-1.13021 v -6.589856 h -0.6836 q -0.55599,0 -0.85677,-0.246094 -0.30078,-0.255209 -0.30078,-0.656251 0,-0.893231 1.2487,-0.893231 z m 12.45965,8.494807 q -0.90234,0.701824 -1.75,1.057293 -0.83854,0.346355 -1.88672,0.346355 -0.95703,0 -1.6862,-0.373698 -0.72006,-0.382814 -1.11198,-1.02995 -0.39193,-0.647137 -0.39193,-1.403649 0,-1.020835 0.64714,-1.740888 0.64713,-0.720053 1.77734,-0.966148 0.23698,-0.05469 1.17579,-0.246094 0.9388,-0.191406 1.60417,-0.346355 0.67448,-0.164062 1.45833,-0.391927 -0.0456,-0.984377 -0.40104,-1.440107 -0.34636,-0.464845 -1.44922,-0.464845 -0.94792,0 -1.43099,0.264324 -0.47396,0.264323 -0.82032,0.79297 -0.33724,0.528647 -0.48307,0.701824 -0.13672,0.164063 -0.60157,0.164063 -0.41927,0 -0.72916,-0.264324 -0.30079,-0.273438 -0.30079,-0.692709 0,-0.656251 0.46485,-1.276044 0.46484,-0.619793 1.44922,-1.020835 0.98438,-0.401043 2.45183,-0.401043 1.64063,0 2.57943,0.391928 0.9388,0.382813 1.32162,1.221356 0.39192,0.838544 0.39192,2.223963 0,0.875001 -0.009,1.48568 0,0.610678 -0.009,1.358075 0,0.701824 0.22786,1.46745 0.23698,0.756512 0.23698,0.975263 0,0.382813 -0.36458,0.701824 -0.35547,0.309896 -0.8112,0.309896 -0.38282,0 -0.75652,-0.355469 -0.37369,-0.364584 -0.79297,-1.048179 z m -0.16406,-3.600267 q -0.54687,0.200521 -1.59505,0.428386 -1.03907,0.218751 -1.44011,0.328126 -0.40104,0.10026 -0.76563,0.410157 -0.36458,0.300781 -0.36458,0.847657 0,0.565106 0.42839,0.966148 0.42838,0.391928 1.12109,0.391928 0.73828,0 1.35808,-0.319011 0.6289,-0.328126 0.92057,-0.838543 0.33724,-0.565106 0.33724,-1.859379 z m 13.24352,0.127604 v 3.3086 q 0,0.783856 -0.35547,1.175783 -0.35547,0.391928 -0.93881,0.391928 -0.5651,0 -0.92057,-0.391928 -0.34636,-0.391927 -0.34636,-1.175783 V 25.62092 q 0,-0.938804 -0.0638,-1.458336 -0.0638,-0.519532 -0.34635,-0.847658 -0.28256,-0.33724 -0.89323,-0.33724 -1.22136,0 -1.61329,0.838543 -0.38281,0.838544 -0.38281,2.406255 v 3.363287 q 0,0.774741 -0.35547,1.175783 -0.34636,0.391928 -0.92058,0.391928 -0.5651,0 -0.92969,-0.391928 -0.35546,-0.401042 -0.35546,-1.175783 v -7.118502 q 0,-0.701825 0.31901,-1.066409 0.32812,-0.364584 0.85677,-0.364584 0.51042,0 0.84766,0.346355 0.34635,0.33724 0.34635,0.938804 v 0.23698 q 0.64714,-0.774741 1.38542,-1.139325 0.73828,-0.364584 1.64063,-0.364584 0.9388,0 1.61328,0.373698 0.67448,0.373699 1.11198,1.130211 0.62891,-0.765627 1.34896,-1.130211 0.72006,-0.373698 1.59506,-0.373698 1.02083,0 1.75912,0.401042 0.73828,0.401042 1.10286,1.14844 0.31901,0.67448 0.31901,2.123701 v 4.858082 q 0,0.783856 -0.35546,1.175783 -0.35547,0.391928 -0.93881,0.391928 -0.5651,0 -0.92969,-0.391928 -0.35547,-0.401042 -0.35547,-1.175783 V 25.40217 q 0,-0.802085 -0.0729,-1.285159 -0.0638,-0.483074 -0.36459,-0.811199 -0.30078,-0.328126 -0.91146,-0.328126 -0.49219,0 -0.9388,0.291667 -0.4375,0.291668 -0.6836,0.783856 -0.27343,0.628907 -0.27343,2.223962 z m 10.72788,-3.828132 v 7.19142 q 0,0.747397 -0.35547,1.13021 -0.35547,0.382813 -0.90235,0.382813 -0.54687,0 -0.89323,-0.391928 -0.33724,-0.391927 -0.33724,-1.121095 v -7.118503 q 0,-0.738282 0.33724,-1.111981 0.34636,-0.373699 0.89323,-0.373699 0.54688,0 0.90235,0.373699 0.35547,0.373699 0.35547,1.039064 z m -1.23047,-2.570317 q -0.51954,0 -0.89323,-0.319011 -0.36459,-0.319011 -0.36459,-0.902345 0,-0.528647 0.3737,-0.865887 0.38281,-0.346355 0.88412,-0.346355 0.48307,0 0.85677,0.309897 0.3737,0.309896 0.3737,0.902345 0,0.57422 -0.36459,0.902345 -0.36458,0.319011 -0.86588,0.319011 z m 3.80079,9.761737 V 18.848773 q 0,-0.747398 0.32812,-1.130211 0.33724,-0.382813 0.90235,-0.382813 0.5651,0 0.91146,0.382813 0.34635,0.373699 0.34635,1.130211 v 10.791686 q 0,0.756511 -0.35547,1.139325 -0.34635,0.373698 -0.90234,0.373698 -0.54688,0 -0.89323,-0.391928 -0.33724,-0.391927 -0.33724,-1.121095 z m 7.35548,1.82292 0.22786,-0.555991 -3.0625,-7.710951 q -0.28256,-0.665366 -0.28256,-0.966148 0,-0.319011 0.16407,-0.592449 0.16406,-0.273438 0.44661,-0.437501 0.29167,-0.164063 0.60157,-0.164063 0.53776,0 0.8112,0.346355 0.27343,0.33724 0.48307,0.975262 l 2.10547,6.125011 1.9961,-5.696624 q 0.23698,-0.69271 0.42839,-1.084638 0.1914,-0.391928 0.40104,-0.528647 0.21875,-0.136719 0.61068,-0.136719 0.28255,0 0.53776,0.154949 0.26432,0.145833 0.40104,0.401042 0.14583,0.255209 0.14583,0.537761 -0.0365,0.173178 -0.11849,0.492189 -0.082,0.319011 -0.20052,0.647136 l -3.24479,8.494807 q -0.41928,1.121096 -0.82032,1.759118 -0.40104,0.638022 -1.06641,0.975262 -0.65625,0.346355 -1.77734,0.346355 -1.09376,0 -1.64063,-0.236979 -0.54688,-0.23698 -0.54688,-0.865887 0,-0.428387 0.25521,-0.665366 0.26432,-0.227865 0.77474,-0.227865 0.20052,0 0.39193,0.05469 0.23698,0.05469 0.41016,0.05469 0.42838,0 0.67448,-0.127604 0.24609,-0.127605 0.4375,-0.446616 0.20052,-0.309896 0.45573,-0.920574 z"
       id="text1"
       style="font-weight:bold;font-size:18.6667px;font-family:'Arial Rounded MT Bold';-inkscape-font-specification:'Arial Rounded MT Bold,  Bold';text-align:center;text-anchor:middle"
       aria-label=".family" />
  </g>
</svg>
